# xmcd
#
# Track frame offsets:
#	150
#	22072
#	38055
#	75009
#	83554
#	98823
#	113914
#	127552
#	138475
#	148798
#	161496
#	175905
#	190009
#	199178
#	209907
#	226609
#	235827
#	251561
#	264299
#	304306
#	324617
#	337142
#
# Disc length: 4769 seconds
#
# Revision: 0
# Processed by: cddbd v1.5.1PL0 Copyright (c) Steve Scherf et al.
# Submitted via: audiograbber 1.83.01
#
DISCID=28129f16
DTITLE=Willie Nelson -  Live At Billy Bob's Texas [DVD Bonus Tracks]
DYEAR=2004
DGENRE=Country
TTITLE0=Whiskey River - Stay All Night
TTITLE1=Good Hearted Woman
TTITLE2=Funny How Time Slips Away-Crazy-Night Life
TTITLE3=Down Yonder
TTITLE4=Workin' Mans Blues
TTITLE5=Help Me Make It Through The Night
TTITLE6=Me and Bobby McGee
TTITLE7=Me and Paul
TTITLE8=If You Got The Money, I Got The Time
TTITLE9=Blue Eyes Cryin' In The Rain
TTITLE10=Blue Skies
TTITLE11=Georgia On My Mind
TTITLE12=All Of Me
TTITLE13=Mommas Don't Let Your Babies Grow Up To be Cowboys
TTITLE14=Angel Flying Too Close To The Ground
TTITLE15=On The Road Again
TTITLE16=Always On My Mind
TTITLE17=Seven Spanish Angels
TTITLE18=City Of New Orleans-To All The Girls-Luckenbach Texas-Still Is Still M
TTITLE18=ovin'
TTITLE19=Pancho and Lefty
TTITLE20=Beer For My Horses
TTITLE21=The Great Divide
EXTD=
EXTT0=
EXTT1=
EXTT2=
EXTT3=
EXTT4=
EXTT5=
EXTT6=
EXTT7=
EXTT8=
EXTT9=
EXTT10=
EXTT11=
EXTT12=
EXTT13=
EXTT14=
EXTT15=
EXTT16=
EXTT17=
EXTT18=
EXTT19=
EXTT20=
EXTT21=
PLAYORDER=
